<mxfile host="app.diagrams.net" modified="2023-03-13T09:43:36.756Z" agent="5.0 (Macintosh; Intel Mac OS X 10_15_7) AppleWebKit/605.1.15 (KHTML, like Gecko) Version/16.2 Safari/605.1.15" etag="lu2XzRXY1fhjnGjQ7Xn_" version="21.0.6" type="github">
  <diagram id="6a731a19-8d31-9384-78a2-239565b7b9f0" name="Page-1">
    <mxGraphModel dx="954" dy="562" grid="1" gridSize="10" guides="1" tooltips="1" connect="1" arrows="1" fold="1" page="1" pageScale="1" pageWidth="1169" pageHeight="827" background="none" math="0" shadow="0">
      <root>
        <mxCell id="0" />
        <mxCell id="1" parent="0" />
        <mxCell id="bkp4SQVUInSILuSQX6_7-68" value="" style="rounded=1;whiteSpace=wrap;html=1;fillColor=#dae8fc;strokeColor=#6c8ebf;" vertex="1" parent="1">
          <mxGeometry x="140" y="10" width="710" height="70" as="geometry" />
        </mxCell>
        <mxCell id="bkp4SQVUInSILuSQX6_7-69" value="数据源（1...n）" style="rounded=0;whiteSpace=wrap;html=1;fillColor=#ffe6cc;strokeColor=#d79b00;" vertex="1" parent="1">
          <mxGeometry x="230" y="25" width="120" height="45" as="geometry" />
        </mxCell>
        <mxCell id="bkp4SQVUInSILuSQX6_7-71" value="应用层" style="rounded=0;whiteSpace=wrap;html=1;fillColor=#fff2cc;strokeColor=#d6b656;" vertex="1" parent="1">
          <mxGeometry x="620" y="25" width="120" height="45" as="geometry" />
        </mxCell>
        <mxCell id="bkp4SQVUInSILuSQX6_7-72" value="" style="shape=singleArrow;direction=south;whiteSpace=wrap;html=1;" vertex="1" parent="1">
          <mxGeometry x="260" y="80" width="60" height="110" as="geometry" />
        </mxCell>
        <mxCell id="bkp4SQVUInSILuSQX6_7-73" value="统一协议同步数据" style="text;html=1;align=center;verticalAlign=middle;resizable=0;points=[];autosize=1;strokeColor=none;fillColor=none;" vertex="1" parent="1">
          <mxGeometry x="230" y="115" width="120" height="30" as="geometry" />
        </mxCell>
        <mxCell id="bkp4SQVUInSILuSQX6_7-74" value="" style="rounded=1;whiteSpace=wrap;html=1;fillColor=#d5e8d4;strokeColor=#82b366;" vertex="1" parent="1">
          <mxGeometry x="140" y="190" width="710" height="70" as="geometry" />
        </mxCell>
        <mxCell id="bkp4SQVUInSILuSQX6_7-79" value="" style="shape=singleArrow;direction=south;whiteSpace=wrap;html=1;" vertex="1" parent="1">
          <mxGeometry x="650" y="80" width="60" height="110" as="geometry" />
        </mxCell>
        <mxCell id="bkp4SQVUInSILuSQX6_7-80" value="拉取属性信息" style="text;html=1;align=center;verticalAlign=middle;resizable=0;points=[];autosize=1;strokeColor=none;fillColor=none;" vertex="1" parent="1">
          <mxGeometry x="640" y="105" width="100" height="30" as="geometry" />
        </mxCell>
        <mxCell id="bkp4SQVUInSILuSQX6_7-81" value="" style="rounded=1;whiteSpace=wrap;html=1;fillColor=#1ba1e2;fontColor=#ffffff;strokeColor=#006EAF;" vertex="1" parent="1">
          <mxGeometry x="140" y="370" width="710" height="70" as="geometry" />
        </mxCell>
        <mxCell id="bkp4SQVUInSILuSQX6_7-83" value="接入层" style="swimlane;horizontal=0;whiteSpace=wrap;html=1;fillColor=#f8cecc;strokeColor=#b85450;" vertex="1" parent="1">
          <mxGeometry x="140" y="10" width="20" height="70" as="geometry">
            <mxRectangle x="120" y="590" width="40" height="70" as="alternateBounds" />
          </mxGeometry>
        </mxCell>
        <mxCell id="bkp4SQVUInSILuSQX6_7-84" value="缓存层" style="swimlane;horizontal=0;whiteSpace=wrap;html=1;fillColor=#e1d5e7;strokeColor=#9673a6;" vertex="1" parent="1">
          <mxGeometry x="140" y="190" width="20" height="70" as="geometry" />
        </mxCell>
        <mxCell id="bkp4SQVUInSILuSQX6_7-85" value="持久化" style="swimlane;horizontal=0;whiteSpace=wrap;html=1;fillColor=#e1d5e7;strokeColor=#9673a6;" vertex="1" parent="1">
          <mxGeometry x="140" y="370" width="20" height="70" as="geometry" />
        </mxCell>
        <mxCell id="bkp4SQVUInSILuSQX6_7-87" value="" style="shape=singleArrow;direction=south;whiteSpace=wrap;html=1;" vertex="1" parent="1">
          <mxGeometry x="260" y="260" width="60" height="110" as="geometry" />
        </mxCell>
        <mxCell id="bkp4SQVUInSILuSQX6_7-88" value="异步同步到持久化存储" style="text;html=1;align=center;verticalAlign=middle;resizable=0;points=[];autosize=1;strokeColor=none;fillColor=none;" vertex="1" parent="1">
          <mxGeometry x="230" y="295" width="140" height="30" as="geometry" />
        </mxCell>
        <mxCell id="bkp4SQVUInSILuSQX6_7-89" value="" style="shape=singleArrow;direction=north;whiteSpace=wrap;html=1;" vertex="1" parent="1">
          <mxGeometry x="650" y="265" width="60" height="105" as="geometry" />
        </mxCell>
        <mxCell id="bkp4SQVUInSILuSQX6_7-90" value="缓存失效，从持久化存储拉数据" style="text;html=1;align=center;verticalAlign=middle;resizable=0;points=[];autosize=1;strokeColor=none;fillColor=none;" vertex="1" parent="1">
          <mxGeometry x="580" y="300" width="190" height="30" as="geometry" />
        </mxCell>
        <mxCell id="bkp4SQVUInSILuSQX6_7-92" value="Redis/GaussDB" style="rounded=0;whiteSpace=wrap;html=1;fillColor=#fad7ac;strokeColor=#b46504;" vertex="1" parent="1">
          <mxGeometry x="410" y="195" width="120" height="60" as="geometry" />
        </mxCell>
        <mxCell id="bkp4SQVUInSILuSQX6_7-93" value="Elastic Search（或其他）" style="rounded=0;whiteSpace=wrap;html=1;fillColor=#b1ddf0;strokeColor=#10739e;" vertex="1" parent="1">
          <mxGeometry x="410" y="375" width="120" height="60" as="geometry" />
        </mxCell>
      </root>
    </mxGraphModel>
  </diagram>
</mxfile>
